<?xml version="1.0" standalone="no"?>
<!DOCTYPE svg PUBLIC "-//W3C//DTD SVG 20010904//EN"
 "http://www.w3.org/TR/2001/REC-SVG-20010904/DTD/svg10.dtd">
<svg version="1.0" xmlns="http://www.w3.org/2000/svg"
 width="127.000000pt" height="257.000000pt" viewBox="0 0 127.000000 257.000000"
 preserveAspectRatio="xMidYMid meet">
<metadata>
Created by potrace 1.10, written by Peter Selinger 2001-2011
</metadata>
<g transform="translate(0.000000,257.000000) scale(0.050000,-0.050000)"
fill="#6e70d7" stroke="none">
<path d="M2235 3819 c-112 -60 -452 -496 -829 -1064 -382 -577 -348 -547 -646
-562 -499 -26 -675 -112 -476 -233 290 -177 311 -428 76 -888 -168 -330 -190
-416 -109 -428 44 -6 74 45 275 476 59 127 174 347 256 490 81 143 161 284
176 314 106 205 271 252 627 180 96 -20 186 -29 200 -21 69 43 -129 93 -440
111 -113 7 -205 16 -205 21 0 5 26 42 57 82 32 40 177 253 322 472 277 419
300 451 537 741 416 509 389 188 -116 -1340 -323 -979 -386 -1216 -329 -1237
38 -15 12 -84 360 957 440 1318 535 1780 398 1931 -42 47 -41 47 -134 -2z
m-1267 -1696 c6 -9 -11 -48 -37 -86 -96 -141 -311 -501 -311 -520 0 -11 -9
-14 -20 -7 -11 7 -20 42 -20 78 0 99 -110 300 -204 375 -104 82 -79 104 150
135 90 12 187 26 214 29 101 15 218 13 228 -4z"/>
</g>
</svg>
